<?xml version="1.0" standalone="no"?>
<!DOCTYPE svg PUBLIC "-//W3C//DTD SVG 20010904//EN"
 "http://www.w3.org/TR/2001/REC-SVG-20010904/DTD/svg10.dtd">
<svg version="1.0" xmlns="http://www.w3.org/2000/svg"
 width="353.000000pt" height="353.000000pt" viewBox="0 0 353.000000 353.000000"
 preserveAspectRatio="xMidYMid meet">
<metadata>
Created by potrace 1.14, written by Peter Selinger 2001-2017
</metadata>
<g transform="translate(0.000000,353.000000) scale(0.100000,-0.100000)"
fill="#000000" stroke="none">
<path d="M3355 2043 c-14 -13 -25 -28 -25 -34 0 -6 -3 -8 -8 -6 -4 3 -8 -17
-9 -44 -1 -27 3 -47 8 -43 8 5 10 -2 8 -22 0 -4 13 -13 30 -22 17 -8 29 -18
26 -21 -2 -4 6 -6 18 -5 12 1 30 3 40 3 9 1 33 17 52 37 28 29 35 44 35 76 0
87 -112 139 -175 81z"/>
<path d="M276 2051 c-4 -5 -14 -10 -24 -10 -41 -1 -52 -5 -52 -17 0 -8 -6 -11
-14 -8 -7 3 -31 -13 -54 -35 -22 -22 -43 -37 -47 -33 -4 4 -6 2 -5 -3 3 -16
-12 -55 -19 -51 -4 3 -8 -7 -9 -21 -1 -14 -8 -33 -15 -41 -10 -13 -9 -14 3 -7
13 8 13 7 1 -8 -7 -9 -10 -17 -6 -17 4 0 1 -8 -6 -17 -9 -10 -9 -14 -2 -10 9
6 11 -2 8 -28 -4 -27 -2 -34 7 -29 10 6 10 4 0 -8 -9 -11 -10 -18 -2 -23 5 -3
10 -15 10 -26 0 -11 7 -27 15 -36 8 -8 13 -19 10 -24 -7 -10 59 -79 75 -79 6
0 9 -4 6 -9 -3 -5 1 -12 10 -15 10 -4 13 -2 8 7 -5 8 -2 8 9 -2 9 -7 14 -17
11 -22 -3 -5 1 -6 9 -3 8 3 18 1 22 -5 4 -8 12 -8 26 -1 11 7 19 7 19 1 0 -5
23 -7 53 -4 28 2 59 5 67 6 8 0 21 7 29 14 7 8 20 12 27 9 8 -3 13 -2 11 2 -3
10 40 52 54 52 5 0 8 4 4 9 -3 6 2 14 11 19 9 5 16 12 16 15 0 20 12 47 20 47
6 0 6 6 -1 14 -9 11 -9 15 1 19 7 3 1 4 -15 3 -15 -2 -30 -5 -33 -9 -3 -3 -12
-3 -20 0 -16 6 -46 -26 -38 -39 3 -5 -2 -8 -10 -8 -9 0 -16 -5 -16 -11 0 -12
-30 -44 -30 -32 0 4 -4 2 -8 -5 -5 -7 -25 -14 -44 -16 -20 -2 -41 -7 -47 -10
-6 -4 -11 -3 -11 3 0 5 -11 8 -25 7 -13 -2 -33 5 -43 14 -10 10 -28 23 -41 29
-12 7 -20 15 -18 18 3 2 -2 13 -11 24 -9 11 -17 27 -17 37 -1 9 -5 28 -9 41
-6 16 -4 26 5 32 11 7 10 9 -5 9 -15 0 -16 3 -6 15 6 8 9 19 5 25 -3 5 -2 10
4 10 5 0 8 9 6 19 -2 11 3 25 11 32 8 6 14 16 14 21 0 12 58 68 73 69 7 1 18
1 25 0 6 -1 12 2 12 6 0 11 91 7 99 -4 3 -4 13 -9 21 -11 20 -4 72 -61 65 -72
-6 -10 16 -18 63 -24 17 -2 32 1 32 6 0 5 4 7 8 4 5 -3 9 1 9 9 0 8 -4 15 -9
15 -4 0 -8 6 -8 13 0 6 -11 25 -25 41 -13 16 -22 33 -19 38 3 4 2 8 -3 7 -20
-3 -34 2 -28 11 3 6 -1 10 -10 10 -9 0 -14 4 -11 8 2 4 -5 9 -16 9 -12 1 -24
6 -27 11 -3 5 -13 9 -21 10 -23 1 -44 7 -57 15 -6 4 -15 3 -18 -3 -5 -8 -11
-8 -20 0 -8 7 -15 7 -19 1z"/>
<path d="M866 2049 c2 -3 -15 -9 -37 -12 -23 -3 -51 -14 -62 -25 -12 -10 -30
-22 -40 -25 -11 -4 -15 -12 -11 -18 4 -7 3 -9 -3 -6 -12 8 -44 -29 -46 -53 -1
-11 -3 -17 -5 -15 -10 10 -38 -60 -29 -72 6 -9 5 -13 -3 -13 -8 0 -10 -3 -7
-7 4 -3 2 -12 -4 -19 -7 -8 -7 -14 1 -19 5 -3 10 -16 10 -28 0 -18 -2 -19 -10
-7 -6 9 -10 10 -10 3 0 -6 5 -15 11 -18 6 -4 8 -14 5 -22 -3 -8 -2 -12 3 -9 5
3 12 -1 15 -10 4 -10 2 -13 -6 -8 -7 5 -8 3 -2 -7 4 -8 10 -23 11 -33 2 -10
11 -25 21 -32 9 -7 14 -14 9 -14 -4 0 13 -19 38 -42 26 -24 48 -42 51 -40 3 1
11 -4 19 -12 8 -8 26 -13 40 -12 14 2 25 0 25 -4 0 -10 64 -6 72 5 5 6 8 6 8
-1 0 -8 11 -8 39 -1 22 6 38 14 35 19 -3 4 2 5 10 2 19 -7 117 88 119 115 0
11 4 18 7 16 3 -2 11 5 18 15 8 13 8 21 1 25 -7 5 -6 11 2 21 6 8 8 14 5 14
-4 0 -2 10 5 21 8 15 8 19 0 15 -6 -4 -11 -2 -11 3 0 6 3 11 8 11 4 0 7 11 7
24 0 13 -3 22 -7 20 -4 -3 -5 11 -4 31 2 19 0 35 -5 35 -5 0 -9 7 -9 16 0 9
-5 12 -12 8 -7 -5 -9 -1 -6 13 3 13 -1 25 -13 34 -10 7 -16 16 -13 21 3 4 -2
8 -11 8 -9 0 -13 5 -10 10 3 6 0 10 -7 10 -7 0 -19 9 -26 21 -8 13 -19 18 -29
15 -10 -4 -14 -2 -10 6 3 9 -7 14 -31 15 -19 1 -39 8 -43 15 -5 7 -9 8 -9 3 0
-6 -9 -11 -20 -12 -11 -1 -18 1 -16 5 3 4 -4 8 -14 8 -10 0 -17 -3 -14 -7z
m92 -93 c13 1 27 -6 33 -17 5 -10 14 -18 18 -16 5 1 8 -1 7 -5 0 -4 9 -15 22
-24 13 -9 21 -22 18 -29 -3 -8 0 -15 6 -17 6 -2 12 -23 12 -46 1 -23 5 -42 9
-42 5 0 5 -4 2 -10 -3 -5 -8 -27 -10 -47 -2 -21 -8 -39 -14 -41 -6 -2 -11 -13
-11 -24 0 -21 -36 -57 -58 -58 -7 0 -15 -6 -18 -13 -3 -8 -19 -13 -37 -12 -18
1 -38 -4 -46 -9 -10 -8 -15 -7 -18 2 -3 6 -16 12 -29 12 -24 0 -39 8 -72 42
-33 33 -42 48 -44 73 -1 14 -6 25 -10 25 -4 0 -8 5 -8 11 0 5 5 7 11 3 6 -3 3
6 -7 22 -19 27 -19 28 0 21 16 -6 17 -5 6 8 -10 12 -10 15 1 15 9 0 10 3 4 8
-15 10 -18 35 -4 26 9 -5 10 -2 6 9 -3 9 -2 19 4 22 5 4 7 11 4 16 -4 5 -1 9
6 9 7 0 10 3 6 6 -6 6 8 23 51 58 24 21 97 36 122 26 8 -3 25 -5 38 -4z"/>
<path d="M1944 2052 c3 -5 -20 -8 -51 -8 -42 1 -63 -4 -82 -19 -14 -11 -21
-14 -17 -7 7 11 4 11 -12 1 -12 -7 -18 -17 -16 -21 3 -4 -2 -8 -11 -8 -20 0
-74 -60 -75 -83 0 -10 -4 -15 -10 -12 -5 3 -10 1 -10 -4 0 -6 5 -11 12 -11 6
0 4 -6 -7 -13 -10 -8 -15 -19 -11 -25 4 -7 3 -12 -3 -12 -5 0 -8 -10 -6 -22 3
-12 0 -27 -6 -35 -7 -8 -8 -13 -1 -13 5 0 8 -18 7 -39 -2 -27 2 -41 12 -45 8
-3 11 -11 8 -16 -4 -6 -1 -18 7 -27 11 -14 11 -16 -2 -8 -12 7 -13 6 -3 -7 7
-8 9 -19 5 -23 -4 -5 -2 -5 5 -1 7 3 14 -2 18 -13 3 -11 12 -22 20 -25 8 -3
15 -11 15 -18 0 -23 119 -71 180 -72 30 -1 60 0 65 3 6 3 19 7 30 8 11 2 22 8
23 13 2 6 10 10 18 10 8 0 26 10 40 23 25 21 80 94 83 110 0 4 2 9 2 12 1 3 3
10 4 15 1 6 4 11 5 13 7 7 5 167 -3 167 -4 0 -5 5 -2 11 4 5 -1 19 -11 30 -9
10 -15 22 -12 25 5 5 -24 43 -51 67 -5 5 -21 19 -35 32 -13 13 -27 20 -30 17
-3 -3 -6 0 -6 6 0 7 -5 12 -11 12 -5 0 -7 -6 -3 -12 6 -10 4 -10 -7 -2 -21 16
-71 35 -65 26z m-41 -97 c15 -1 27 2 27 6 0 10 54 -3 68 -18 8 -7 18 -11 23
-8 5 4 9 -1 9 -9 0 -8 9 -18 21 -21 11 -4 18 -9 15 -12 -3 -4 -1 -12 5 -20 6
-7 8 -13 3 -13 -4 0 1 -7 12 -16 10 -8 12 -12 4 -8 -12 6 -13 5 -3 -7 18 -22
13 -151 -7 -166 -8 -6 -12 -15 -8 -18 7 -7 -19 -35 -68 -75 -11 -8 -35 -15
-54 -15 -19 1 -41 -3 -47 -8 -8 -6 -13 -6 -13 0 0 5 -11 10 -25 11 -33 2 -75
30 -75 49 0 8 -4 12 -8 9 -5 -3 -18 13 -30 35 -12 22 -17 37 -12 34 6 -3 10
-1 10 4 0 6 -4 11 -8 11 -4 0 -9 16 -10 36 -2 25 1 33 9 29 6 -4 3 5 -7 21
-11 15 -14 25 -9 22 6 -4 17 2 24 14 7 11 8 17 2 13 -18 -10 -13 10 9 37 10
14 17 28 15 32 -3 3 -2 4 2 1 3 -3 13 4 20 15 8 11 19 18 24 15 5 -4 9 -1 9 4
0 6 7 11 15 11 8 0 15 6 15 13 0 7 3 8 8 2 4 -5 19 -10 35 -10z"/>
<path d="M2997 2053 c-4 -4 -23 -8 -41 -10 -50 -4 -58 -6 -80 -25 -10 -10 -22
-15 -26 -13 -4 2 -13 -8 -21 -23 -8 -15 -19 -32 -25 -39 -7 -7 -11 -39 -10
-74 1 -46 6 -63 19 -71 10 -5 14 -15 11 -21 -4 -7 -4 -9 1 -5 4 4 14 0 22 -10
10 -11 12 -12 8 -2 -4 8 1 6 9 -4 9 -11 16 -16 16 -11 0 4 9 0 19 -9 13 -12
21 -14 26 -6 5 8 12 5 22 -7 8 -10 12 -12 8 -5 -3 6 -1 12 4 12 6 0 11 -6 11
-12 0 -9 4 -8 10 2 7 11 10 12 10 2 0 -9 7 -11 20 -7 11 3 20 2 20 -3 0 -5 12
-9 26 -9 16 0 36 -11 51 -27 20 -22 24 -34 19 -62 -4 -19 -13 -34 -20 -34 -8
0 -16 -7 -19 -15 -4 -8 -15 -12 -28 -10 -13 3 -28 0 -36 -6 -10 -9 -13 -8 -13
2 0 11 -2 11 -10 -1 -5 -8 -10 -10 -10 -5 0 6 -14 11 -32 12 -18 0 -34 6 -36
12 -2 6 -9 11 -16 11 -15 0 -40 47 -38 70 1 10 -1 11 -4 3 -4 -9 -11 -10 -25
-3 -13 8 -19 7 -19 0 0 -8 -6 -8 -20 0 -19 10 -20 8 -16 -14 3 -15 0 -26 -5
-26 -6 0 -7 -5 -4 -10 4 -6 11 -8 16 -4 6 3 9 0 8 -7 -7 -42 78 -118 129 -114
12 1 22 -1 22 -5 0 -5 48 -5 142 2 15 1 25 5 22 10 -3 4 6 10 19 14 42 10 79
61 78 109 0 10 5 26 12 34 9 11 9 15 0 18 -7 3 -13 16 -13 29 0 14 -7 27 -15
30 -8 4 -12 10 -9 15 3 5 -4 9 -16 9 -12 0 -18 5 -15 10 3 6 -1 10 -10 10 -9
0 -14 3 -11 8 2 4 -9 8 -26 9 -17 0 -33 5 -37 9 -3 5 -22 10 -41 11 -19 2 -45
3 -57 4 -13 1 -23 7 -23 13 0 6 -5 4 -10 -4 -8 -13 -10 -12 -10 4 0 11 -3 17
-6 13 -12 -11 -38 25 -40 55 -3 36 37 79 67 73 10 -2 19 0 19 4 0 5 12 6 28 4
15 -2 37 -4 50 -4 13 1 21 -3 18 -8 -3 -5 5 -12 19 -15 16 -4 22 -11 19 -21
-4 -8 -1 -15 6 -15 6 0 9 -4 6 -8 -3 -5 11 -16 30 -26 20 -9 33 -12 29 -6 -3
5 -1 10 4 10 6 0 11 -6 11 -12 0 -7 5 -5 11 5 13 22 8 68 -9 85 -7 8 -10 18
-7 23 4 5 -1 9 -9 9 -8 0 -18 9 -21 21 -4 11 -9 18 -13 15 -3 -3 -14 2 -25 11
-11 10 -17 12 -13 6 4 -7 2 -13 -3 -13 -6 0 -11 6 -11 13 0 8 -13 12 -37 11
-21 0 -41 3 -44 8 -3 4 -9 5 -12 1z"/>
<path d="M1290 2040 l-25 -6 0 -277 0 -278 23 -6 c12 -3 36 -3 53 1 21 4 28 2
23 -6 -4 -7 -3 -8 5 -4 16 10 161 13 161 3 0 -4 8 -3 19 2 10 6 21 8 24 4 3
-3 17 -3 29 0 19 5 24 13 24 45 l1 39 -126 1 c-69 0 -131 1 -138 1 -9 1 -12
60 -11 238 0 223 -1 237 -18 243 -11 4 -30 4 -44 0z"/>
<path d="M2288 2029 c-17 -20 -22 -42 -8 -34 13 8 13 -1 -1 -27 -8 -15 -8 -19
0 -14 6 4 11 4 11 1 0 -4 -5 -16 -11 -27 -8 -15 -8 -19 0 -14 6 4 11 4 11 1 0
-4 -5 -16 -11 -27 -6 -11 -7 -18 -2 -15 5 4 10 -7 10 -23 0 -16 -3 -27 -7 -25
-9 5 -6 -27 4 -43 4 -7 2 -12 -6 -12 -8 0 -9 -3 -3 -8 11 -8 18 -65 7 -58 -4
2 -8 -4 -8 -14 0 -10 4 -16 8 -14 11 7 10 -4 -3 -28 -8 -15 -8 -19 0 -14 6 4
11 4 11 1 0 -4 -5 -16 -11 -27 -8 -15 -8 -19 0 -14 6 4 11 4 11 1 0 -4 -5 -16
-11 -27 -6 -11 -7 -18 -2 -15 5 4 10 -7 10 -23 0 -16 -4 -27 -9 -24 -13 8 -9
-2 10 -22 13 -15 25 -18 52 -13 19 3 31 7 27 8 -4 0 -3 10 3 21 8 15 8 20 -2
20 -10 0 -10 2 1 9 11 7 11 9 0 14 -8 3 -9 6 -3 6 7 1 9 16 4 46 -4 25 -3 45
2 45 4 0 8 5 8 11 0 5 -5 7 -12 3 -7 -4 -8 -3 -4 4 4 7 14 12 22 12 9 0 12 5
9 13 -4 6 9 -5 28 -25 19 -21 37 -34 41 -31 3 3 6 -1 6 -10 0 -9 7 -17 17 -17
9 0 13 -3 10 -6 -7 -7 30 -44 43 -44 4 0 13 -11 20 -25 7 -13 17 -22 22 -19 4
3 8 -1 8 -9 0 -16 24 -23 82 -26 25 -1 36 3 34 12 -2 17 -83 97 -90 89 -3 -3
-6 0 -6 7 0 6 -18 28 -39 49 -35 33 -37 38 -23 52 14 13 15 12 9 -3 -3 -9 -2
-17 3 -17 6 0 10 8 10 17 0 9 3 13 7 10 3 -4 13 -1 21 6 13 9 14 9 8 0 -12
-21 0 -15 33 16 16 15 27 31 24 35 -3 3 1 6 9 6 16 0 33 54 30 98 -1 15 3 20
11 15 9 -5 9 -3 0 9 -7 8 -10 18 -6 21 3 4 1 7 -5 7 -6 0 -9 9 -7 21 3 13 -5
30 -20 45 -13 13 -21 24 -17 24 11 0 -61 42 -78 45 -8 2 -15 4 -15 5 0 0 -60
2 -132 3 -111 2 -135 -1 -145 -14z m276 -81 c-3 -4 1 -8 9 -8 8 0 21 -8 28
-17 12 -15 12 -16 -1 -8 -12 7 -12 5 1 -11 24 -28 16 -90 -16 -120 -15 -13
-31 -22 -36 -19 -5 4 -9 1 -9 -5 0 -6 -5 -8 -10 -5 -6 4 -8 12 -4 18 3 7 -1 4
-9 -5 -11 -14 -16 -15 -27 -5 -10 9 -11 9 -6 0 4 -7 2 -13 -3 -13 -6 0 -11 6
-11 13 0 7 -3 8 -8 2 -8 -12 -72 -14 -72 -2 0 4 -5 5 -11 1 -8 -5 -10 3 -7 25
3 18 0 31 -6 32 -7 0 -7 2 -1 5 6 2 8 27 7 54 -6 78 -6 78 102 77 52 0 93 -4
90 -9z"/>
</g>
</svg>
